<svg xmlns="http://www.w3.org/2000/svg" viewBox="0 0 1000 1000">
  <title>Akademia Super Zdrowia — znak marki</title>
  <path d="M 200.0000,50.0000 L 800.0000,50.0000 C 910.0000,50.0000 950.0000,120.0000 950.0000,210.0000 L 950.0000,440.0000 C 950.0000,720.0000 780.0000,880.0000 500.0000,990.0000 C 220.0000,880.0000 50.0000,720.0000 50.0000,440.0000 L 50.0000,210.0000 C 50.0000,120.0000 90.0000,50.0000 200.0000,50.0000 Z" fill="#FFC300"/>
  <path d="M 236.0000,106.4000 L 764.0000,106.4000 C 860.8000,106.4000 896.0000,168.0000 896.0000,247.2000 L 896.0000,449.6000 C 896.0000,696.0000 746.4000,836.8000 500.0000,933.6000 C 253.6000,836.8000 104.0000,696.0000 104.0000,449.6000 L 104.0000,247.2000 C 104.0000,168.0000 139.2000,106.4000 236.0000,106.4000 Z" fill="#14213D"/>
  <polygon points="500.0000,185.0000 577.5877,363.2098 771.0511,381.9302 625.5395,510.7902 667.5188,700.5698 500.0000,602.0000 332.4812,700.5698 374.4605,510.7902 228.9489,381.9302 422.4123,363.2098" fill="#FFC300"/>
</svg>
